<?xml version="1.0" encoding="utf-8"?>
<!-- Generator: Adobe Illustrator 19.0.0, SVG Export Plug-In . SVG Version: 6.00 Build 0)  -->
<svg version="1.1" id="Layer_1" xmlns="http://www.w3.org/2000/svg" xmlns:xlink="http://www.w3.org/1999/xlink" x="0px" y="0px"
	 viewBox="0 0 960 560" style="enable-background:new 0 0 960 560;" xml:space="preserve">
<style type="text/css">
	.st0{fill:none;stroke:#000000;stroke-width:62;stroke-linecap:round;}
	.st1{fill:none;stroke:#000000;stroke-width:20;stroke-linecap:round;}
	.st2{display:none;}
	.st3{display:inline;fill:#B62121;}
	.st4{display:none;fill:#EAA92B;}
	.st5{display:inline;fill:#53FC18;}
	.st6{display:none;fill:#FFFFFF;}
	.st7{display:inline;fill:#58E236;}
</style>
<g>
	<path class="st0" d="M480.3,267.5v32.8"/>
	<path class="st1" d="M459.5,297.6V311c0,10.3-1.8,20.5-5.4,30.2l-2.1,5.9"/>
	<path class="st1" d="M481.8,304v29.4l-0.8,17.4"/>
	<path class="st1" d="M501,297.1V317c0,9.4,1.5,18.7,4.5,27.6l1.4,4.2"/>
	<g class="st2">
		<path class="st3" d="M450.7,253.4c-3.4-16.8-7.8-27.4-12-34c-2.1-3.3-4.1-5.5-5.9-6.9c-1.6-1.3-3-1.9-4.1-2.1c-0.2,0-0.4,0-0.6,0
			l0-0.8c0.1,0,0.3,0,0.4,0l0,0c0.1,0,0.2,0,0.3,0c11.9-0.5,21.7,5.9,29.2,14.1c7.6,8.3,12.8,18.6,15.2,25.5l0.2,0.4l-22.6,4.1
			L450.7,253.4z"/>
	</g>
	<ellipse class="st4" cx="428.2" cy="209.9" rx="3.1" ry="3.1"/>
	<g class="st2">
		<path class="st5" d="M465.4,249.9c-2-17-5.6-28-9.2-34.8c-1.8-3.4-3.6-5.8-5.3-7.4c-1.5-1.4-2.9-2.2-3.9-2.4c-0.2,0-0.4,0-0.6,0
			l0-0.8c0.1,0,0.3,0,0.4,0l0,0c0.1,0,0.2,0,0.2,0.1c11.9,0.5,21.2,7.6,28,16.4c6.9,8.9,11.3,19.6,13.1,26.7l0.1,0.4l-22.9,2.3
			L465.4,249.9z"/>
	</g>
	<ellipse class="st4" cx="446.5" cy="204.7" rx="3.1" ry="3.1"/>
	<rect x="486.5" y="206" class="st6" width="48.4" height="47"/>
	<g class="st2">
		<path class="st7" d="M509.2,252.7c3.4-16.7,7.8-27.4,12-33.9c2.1-3.3,4.1-5.5,5.9-6.9c1.6-1.3,3-1.9,4.1-2.1c0.2,0,0.4,0,0.6,0
			l0-0.8c-0.1,0-0.3,0-0.4,0l0,0c-0.1,0-0.2,0-0.3,0c-11.9-0.5-21.7,5.9-29.2,14.1c-7.6,8.3-12.8,18.6-15.3,25.5l-0.2,0.4l22.7,4.1
			L509.2,252.7z"/>
	</g>
	<ellipse class="st4" cx="531.8" cy="209.1" rx="3.1" ry="3.1"/>
	<g class="st2">
		<path class="st3" d="M496,249.9c0.7-17.1,3.4-28.3,6.5-35.4c1.5-3.6,3.2-6.1,4.7-7.8c1.4-1.6,2.7-2.4,3.7-2.7c0.2,0,0.4,0,0.6-0.1
			l-0.1-0.8c-0.1,0-0.3,0-0.4,0l0,0c-0.1,0-0.2,0-0.2,0.1c-11.8,1.4-20.5,9.2-26.6,18.5c-6.2,9.4-9.7,20.4-11.1,27.6l-0.1,0.4
			l23,0.5L496,249.9z"/>
	</g>
	<ellipse class="st4" cx="511.5" cy="203.3" rx="3.1" ry="3.1"/>
	<rect x="446.8" y="247.2" class="st4" width="65.4" height="7.8"/>
</g>
</svg>
