<?xml version="1.0" encoding="utf-8"?>
<!-- Generator: Adobe Illustrator 19.0.0, SVG Export Plug-In . SVG Version: 6.00 Build 0)  -->
<svg version="1.1" id="Layer_1" xmlns="http://www.w3.org/2000/svg" xmlns:xlink="http://www.w3.org/1999/xlink" x="0px" y="0px"
	 viewBox="0 0 960 560" style="enable-background:new 0 0 960 560;" xml:space="preserve">
<style type="text/css">
	.st0{fill:#B62121;}
	.st1{fill:#EAA92B;}
	.st2{fill:#53FC18;}
	.st3{fill:#58E236;}
</style>
<g id="XMLID_22_">
	<path id="XMLID_9_" class="st0" d="M227.8,489.2c-29-144.1-67.2-236-103.1-292.2c-17.9-28.1-35.2-47.2-50.4-59.5
		c-13.9-11.3-26-16.7-35-18.3c-1.7,0.1-3.4,0.2-5.2,0.3l-0.4-6.7c1.3-0.1,2.5-0.2,3.8-0.2l0-0.4c0.7,0.1,1.4,0.2,2.2,0.3
		c102.3-4.3,186.9,50.8,251.1,121.2c65.4,71.8,110.1,160.1,131.1,219.6l1.3,3.7l-194.9,35.5L227.8,489.2z"/>
</g>
<ellipse id="XMLID_8_" class="st1" cx="33.9" cy="114.5" rx="26.8" ry="26.8"/>
<g id="XMLID_19_">
	<path id="XMLID_7_" class="st2" d="M354.6,458.7c-17.3-146-48.1-240.6-79.3-299.5c-15.6-29.4-31.3-49.9-45.5-63.4
		c-13-12.4-24.5-18.8-33.4-21c-1.7-0.1-3.5-0.1-5.2-0.1l0.1-6.7c1.3,0,2.5,0.1,3.8,0.1l0.1-0.4c0.7,0.1,1.4,0.3,2.1,0.4
		c102.3,4,182.2,65.6,240.5,141C497.4,286,534.8,377.5,551,438.5l1,3.8L354.9,462L354.6,458.7z"/>
</g>
<ellipse id="XMLID_6_" class="st1" cx="191.4" cy="69.7" rx="26.8" ry="26.8"/>
<g id="XMLID_16_">
	<path id="XMLID_5_" class="st3" d="M731.7,482.7c29.1-144.1,67.5-235.9,103.4-292.1c18-28.1,35.3-47.2,50.5-59.5
		c14-11.3,26-16.7,35-18.2c1.7,0.1,3.5,0.2,5.2,0.3l0.4-6.7c-1.3-0.1-2.5-0.2-3.8-0.2l0-0.4c-0.7,0.1-1.4,0.2-2.2,0.3
		c-102.4-4.4-187,50.6-251.3,121c-65.5,71.8-110.3,160-131.4,219.4l-1.3,3.7l195,35.7L731.7,482.7z"/>
</g>
<ellipse id="XMLID_4_" transform="matrix(9.985175e-004 -1 1 9.985175e-004 816.8999 1034.1418)" class="st1" cx="926" cy="108.2" rx="26.8" ry="26.8"/>
<g id="XMLID_13_">
	<path id="XMLID_3_" class="st0" d="M618.1,458.5c6-146.9,29.4-243.6,56.1-304.7c13.3-30.6,27.4-52.2,40.5-66.7
		c12-13.3,23-20.6,31.7-23.5c1.7-0.2,3.4-0.4,5.2-0.5l-0.6-6.7c-1.3,0.1-2.5,0.2-3.8,0.4l-0.1-0.4c-0.7,0.2-1.4,0.4-2.1,0.6
		c-101.8,11.8-176.7,79.4-229.1,159.1c-53.4,81.2-83.7,175.4-95.2,237.4l-0.7,3.9l198.1,4.5L618.1,458.5z"/>
</g>
<ellipse id="XMLID_2_" transform="matrix(-0.1566 -0.9877 0.9877 -0.1566 811.1887 808.9332)" class="st1" cx="751" cy="58.1" rx="26.8" ry="26.8"/>
<rect id="XMLID_1_" x="194.6" y="435.9" class="st1" width="562.4" height="67"/>
</svg>
